<svg width="49.999878" height="50.000122" viewBox="0 0 49.9999 50.0001" fill="none" xmlns="http://www.w3.org/2000/svg" xmlns:xlink="http://www.w3.org/1999/xlink">
	<desc>
			Created with Pixso.
	</desc>
	<defs/>
	<path id="XMLID_749_" d="M10.51 45.29C10.51 44.83 10.14 44.45 9.67 44.45L4.59 44.45C4.13 44.45 3.75 44.83 3.75 45.29C3.75 45.75 4.13 46.13 4.59 46.13L9.67 46.13C10.14 46.13 10.51 45.75 10.51 45.29ZM0 18.01L0 26.55C0 26.56 0 26.57 0 26.57C0 26.58 0 26.58 0 26.59L0 35.13C0 35.14 0 35.14 0 35.15C0 35.16 0 35.16 0 35.17L0 47.98C0 49.09 0.9 50 2.01 50L14.75 50C15.87 50 16.77 49.09 16.77 47.98L16.77 2.01C16.77 0.9 15.87 0 14.75 0L2.01 0C0.9 0 0 0.9 0 2.01L0 9.39C0 9.4 0 9.41 0 9.41C0 9.42 0 9.43 0 9.43L0 17.97C0 17.98 0 17.99 0 17.99C0 18 0 18.01 0 18.01ZM1.67 35.99L15.1 35.99L15.1 47.98C15.1 48.16 14.94 48.32 14.75 48.32L2.01 48.32C1.83 48.32 1.67 48.16 1.67 47.98L1.67 35.99ZM1.67 27.41L15.1 27.41L15.1 34.31L1.67 34.31L1.67 27.41ZM1.67 18.83L15.1 18.83L15.1 25.73L1.67 25.73L1.67 18.83ZM1.67 10.25L15.1 10.25L15.1 17.15L1.67 17.15L1.67 10.25ZM1.67 2.01C1.67 1.83 1.83 1.67 2.01 1.67L14.75 1.67C14.94 1.67 15.1 1.83 15.1 2.01L15.1 8.57L1.67 8.57L1.67 2.01ZM7.61 42.99L4.59 42.99C4.13 42.99 3.75 42.62 3.75 42.16C3.75 41.69 4.13 41.32 4.59 41.32L7.61 41.32C8.07 41.32 8.45 41.69 8.45 42.16C8.45 42.62 8.07 42.99 7.61 42.99ZM48.99 16.9C49.77 16.12 49.77 14.84 48.99 14.05L39.98 5.04C39.6 4.66 39.09 4.45 38.55 4.45C38.01 4.45 37.5 4.66 37.12 5.04L31.91 10.25C31.9 10.26 31.9 10.27 31.89 10.27C31.88 10.28 31.88 10.29 31.87 10.29L25.84 16.32C25.84 16.33 25.83 16.33 25.82 16.34C25.82 16.35 25.81 16.35 25.81 16.36L19.55 22.62C19.22 22.95 19.22 23.48 19.55 23.8C19.73 23.99 19.97 24.07 20.21 24.04L29.84 33.68L24.96 38.56L20.73 34.33C20.4 34 19.87 34 19.55 34.33C19.38 34.49 19.3 34.71 19.3 34.92C19.3 35.13 19.38 35.35 19.55 35.51L23.78 39.74L19.55 43.98C19.22 44.3 19.22 44.83 19.55 45.16C19.71 45.32 19.92 45.41 20.14 45.41C20.35 45.41 20.57 45.32 20.73 45.16L48.99 16.9ZM26.42 18.12L35.91 27.61L31.03 32.49L21.53 23L26.42 18.12ZM32.48 12.05L41.98 21.54L37.1 26.43L27.6 16.93L32.48 12.05ZM47.8 15.72L43.16 20.36L33.67 10.86L38.31 6.22C38.39 6.14 38.5 6.13 38.55 6.13C38.6 6.13 38.71 6.14 38.79 6.22L47.8 15.23C47.93 15.37 47.93 15.59 47.8 15.72ZM18.12 49.16C18.12 49.62 18.49 50 18.95 50L47.98 50C49.09 50 49.99 49.09 49.99 47.98L49.99 35.24C49.99 34.12 49.09 33.22 47.98 33.22L40.6 33.22C40.59 33.22 40.57 33.22 40.56 33.22L36.02 33.22C35.56 33.22 35.18 33.59 35.18 34.06C35.18 34.52 35.56 34.89 36.02 34.89L39.74 34.89L39.74 48.32L32.84 48.32L32.84 38.08C32.84 37.62 32.46 37.24 32 37.24C31.54 37.24 31.16 37.62 31.16 38.08L31.16 48.32L24.26 48.32L24.26 46.66C24.26 46.2 23.88 45.82 23.42 45.82C22.96 45.82 22.58 46.2 22.58 46.66L22.58 48.32L18.95 48.32C18.49 48.32 18.12 48.7 18.12 49.16ZM41.41 34.89L47.98 34.89C48.16 34.89 48.32 35.05 48.32 35.24L48.32 47.98C48.32 48.16 48.16 48.32 47.98 48.32L41.41 48.32L41.41 34.89Z" fill="#FFFFFF" fill-opacity="1.000000" fill-rule="nonzero"/>
</svg>
